<svg width="511" height="523" viewBox="0 0 511 523" fill="none" xmlns="http://www.w3.org/2000/svg">
<g clip-path="url(#clip0_1179_1452)">
<path d="M255.649 523.563C397.062 523.563 511.699 406.233 511.699 261.5C511.699 116.766 397.062 -0.563721 255.649 -0.563721C114.236 -0.563721 -0.401855 116.766 -0.401855 261.5C-0.401855 406.233 114.236 523.563 255.649 523.563Z" fill="white"/>
<path d="M255.648 6.61548C147.975 6.61548 56.3108 76.7555 21.8848 174.828H489.412C454.986 76.7561 363.322 6.61548 255.648 6.61548Z" fill="#F37022"/>
<path d="M255.648 514.929C363.433 514.929 455.175 444.644 489.518 346.413H21.7783C56.1212 444.644 147.864 514.929 255.648 514.929Z" fill="#0F823F"/>
<path d="M177.562 476.701L193.424 431.409L176.811 417.344L164.169 385.205L155.196 330.524V296.715L156.826 269.584L164.983 249.13C164.983 249.13 162.536 214.485 162.944 202.798L163.352 191.111L173.139 118.899L180.481 104.708L191.086 95.5262L200.872 95.1077L204.951 93.4376C204.951 93.4376 206.174 84.672 210.252 79.2467L214.331 73.819L224.933 67.1402L239.616 71.6057L256.776 48.7307L271.339 44.4519L283.306 54.3391L286.622 67.6219L302.916 64.0784L313.298 69.0962L319.065 82.2312L330.024 205.161L334.783 246.039L351.218 214.162L367.657 199.701L386.69 198.814L395.63 212.687L378.903 343.439L369.386 372.954L332.131 420.776L318.344 455.299L318.476 473.492L178.88 478.663L177.561 476.7L177.562 476.701Z" fill="white"/>
<path d="M177.562 476.701C176.814 474.5 175.663 466.288 175.004 458.453C172.042 423.178 171.846 421.724 169.481 417.605C165.948 411.45 160.599 394.015 157.299 377.9C148.39 334.384 148.201 287.253 156.818 258.765C158.536 253.086 159.407 246.629 159.671 237.605C160.448 210.986 162.47 174.784 163.59 167.359C164.228 163.139 165.496 152.424 166.407 143.552C169.673 111.737 178.726 96.4781 197.212 91.6294C202.616 90.2111 203.183 89.7014 205.612 84.0815C207.044 80.7667 210.139 76.1443 212.489 73.8075C218.986 67.3476 223.463 65.6282 232.961 65.9445L241.156 66.2158L243.465 61.5958C250.818 46.8855 262.83 39.9257 275.047 43.2909C280.289 44.736 287.765 52.1319 290.272 58.354C291.75 62.0227 291.895 62.0823 297.856 61.4528C305.857 60.6074 311.287 62.5799 316.162 68.1006C323.562 76.483 324.799 82.2593 327.396 120.515L335.743 230.666C337.212 232.168 341.221 227.228 344.849 219.449C349.298 209.902 357.614 201.246 366.286 197.132C378.774 191.204 392.563 193.752 397.153 202.834C399.482 207.444 399.307 218.766 396.638 236.152C395.418 244.096 393.309 262.547 391.949 277.156C387.115 329.072 382.228 352.097 371.028 375.735C365.567 387.26 360.378 394.398 344.548 412.166C337.837 419.701 330.83 428.663 328.981 432.087C325.783 437.997 325.595 439.137 325.241 454.836C324.819 473.586 324.478 474.317 316.199 474.317C309.876 474.317 308.348 471.789 309.41 463.083L310.17 456.86L300.01 453.655C288.703 450.091 286.777 448.94 290.238 447.815C291.532 447.395 294.276 445.083 296.338 442.682C299.708 438.754 299.862 438.268 297.875 437.876C296.66 437.638 292.234 438.104 288.039 438.914C279.914 440.483 273.612 439.395 270.808 435.939C267.925 432.383 270.709 431.608 283.365 432.45L295.666 433.264L306.762 427.358C342.271 408.462 365.354 378.902 374.511 340.604C377.878 326.529 388.023 242.289 386.813 238.458C386.46 237.341 384.612 235.52 382.706 234.415C378.151 231.768 378.334 230.371 383.368 229.403C386.645 228.776 387.831 227.783 389.134 224.595C391.45 218.919 389.384 209.433 384.81 204.754C381.88 201.756 380.798 201.378 376.548 201.87C361.222 203.637 350.47 216.775 344.457 241.091L341.88 251.507L343.938 268.407C345.071 277.706 345.66 285.868 345.248 286.546C343.927 288.735 341.678 287.872 338.989 284.15C336.422 280.599 336.313 280.565 334.004 282.675C332.71 283.861 328.124 292.3 323.822 301.429C319.518 310.555 315.184 318.714 314.192 319.554C312.797 320.74 311.552 320.791 308.712 319.778C304.138 318.145 301.853 319.914 299.626 326.819C298.781 329.441 297.663 331.855 297.14 332.185C295.892 332.973 295.969 321.47 297.25 315.823C298.388 310.806 297.794 310.502 292.384 313.316C276.478 321.59 248.865 353.616 242.005 371.75C236.996 384.986 235.999 386.954 234.292 386.954C232.166 386.954 232.355 384.521 235.019 377.601C236.498 373.763 236.875 371.438 236.099 370.949C234.648 370.029 230.752 373.458 229.815 376.484C229.099 378.792 225.826 379.593 225.826 377.463C225.826 372.444 237.777 356.254 244.889 351.636C247.659 349.839 252.103 345.494 254.765 341.983C257.426 338.472 265.377 329.754 272.43 322.61C285.884 308.985 299.31 299.798 309.802 297.04C315.673 295.499 318.482 292.123 324.363 279.553C328.113 271.529 328.487 269.816 328.452 260.662C328.37 237.357 324.13 222.563 316.465 218.84C311.452 216.405 301.642 216.423 286.135 218.895C274.785 220.705 273.82 220.705 272.527 218.895C271.485 217.436 269.288 216.949 263.765 216.954C251.796 216.963 248.69 218.421 237.518 229.257C231.958 234.648 226.265 239.688 224.866 240.453C222.401 241.803 222.345 241.705 223.044 237.228C224.044 230.824 222.136 227.572 217.372 227.572C213.581 227.572 208.534 230.384 194.498 240.32C187.015 245.617 182.687 246.388 180.498 242.808C178.052 238.807 180.489 235.126 188.033 231.422C200.065 225.515 199.331 228.208 199.621 188.881C199.759 170.021 199.565 154.27 199.189 153.881C198.813 153.492 196.28 153.972 193.564 154.953C187.386 157.183 183.147 157.247 183.147 155.109C183.147 152.439 185.66 151.171 192.665 150.303L199.298 149.483V127.398C199.298 103.155 198.561 100.065 192.777 100.065C182.353 100.065 173.583 118.639 171.59 144.929C171.023 152.396 169.762 161.959 168.784 166.18C166.475 176.16 165.692 238.36 167.776 246.327C169.014 251.06 168.896 251.87 166.398 255.77C161.357 263.645 158.772 276.074 158.087 295.751C157.376 316.195 156.795 315.19 167.231 311.514C180.066 306.994 177.136 314.247 163.907 319.744L157.44 322.43L158.156 335.507C160.205 372.875 171.2 407.092 186.555 423.893L193.423 431.407L190.425 438.99C188.776 443.16 185.888 453.212 184.006 461.328C179.342 481.432 179.25 481.657 177.561 476.7L177.562 476.701ZM219.274 216.47C223.161 213.467 233.551 209.864 238.329 209.864H241.18L240.388 177.694L239.921 137.258C240.66 118.553 239.408 81.7544 237.931 78.8156C235.395 73.7692 231.736 71.1976 227.088 71.1976C218.283 71.1976 210.725 79.9669 208.56 92.6975C207.801 97.1508 206.905 119.601 206.521 143.744C205.402 214.225 205.373 212.507 207.687 216.118C210.273 220.153 214.346 220.278 219.273 216.472V216.471L219.274 216.47ZM218.164 184.795C217.182 183.169 220.011 181.569 223.906 181.548C225.978 181.535 227.002 182.06 226.704 182.975C226.097 184.84 219.091 186.331 218.164 184.795ZM218.523 129.078C217.639 126.721 220.473 124.658 224.889 124.447C230.146 124.199 230.719 127.663 225.715 129.446C220.837 131.187 219.284 131.108 218.523 129.078H218.523ZM274.275 208.685C282.375 202.782 285.685 186.732 283.642 163.259C282.934 155.122 282.035 128.676 281.648 104.491C280.945 60.7564 280.925 60.4931 278.19 56.123C274.695 50.539 269.532 47.7029 264.799 48.7673C259.723 49.9083 251.916 57.7865 248.741 64.972L246.016 71.1447L245.863 132.535C245.701 197.84 245.716 198.046 251.175 199.821C253.053 200.431 253.513 201.594 253.513 205.733C253.513 210.436 253.791 210.938 256.686 211.44C263.224 212.577 270.497 211.436 274.275 208.685V208.685ZM260.433 168.072C260.433 166.169 262.889 164.994 266.87 164.994C270.009 164.994 270.703 167.873 267.836 169.001C264.549 170.292 260.433 169.777 260.433 168.072ZM256.431 121.37C254.566 118.28 261.06 114.843 266.468 116.06C269.048 116.639 269.714 117.377 269.441 119.354C269.137 121.532 268.22 121.953 263.132 122.255C259.835 122.45 256.845 122.055 256.431 121.37ZM318.219 207.903C325.731 204.827 326.384 202.019 324.955 178.947C323.058 148.293 318.354 99.0545 316.432 89.6983C313.366 74.7819 308.7 68.1852 301.213 68.1852C296.942 68.1852 291.347 72.4852 288.362 78.065C286.618 81.3275 286.417 85.3636 286.651 112.458C286.797 129.34 287.512 150.856 288.237 160.271C289.182 172.538 289.211 179.849 288.339 186.064C287.669 190.833 287.391 195.459 287.722 196.34C288.053 197.222 290.101 199.016 292.276 200.327C294.451 201.639 296.703 204 297.289 205.572C297.874 207.144 299.033 208.708 299.866 209.048C303.179 210.406 313.711 209.747 318.217 207.903L318.218 207.902L318.219 207.903ZM300.078 163.248C299.63 162.052 299.98 160.785 300.926 160.17C303.49 158.509 307.738 158.927 308.482 160.912C309.355 163.24 308.927 163.626 304.486 164.535C301.662 165.114 300.669 164.826 300.078 163.248H300.078ZM297.346 115.625C297.346 113.625 300.627 111.679 303.337 112.072C307.811 112.721 306.557 115.952 301.672 116.367C299.292 116.567 297.346 116.234 297.346 115.625H297.346ZM199.099 469.299C198.992 468.487 198.855 464.634 198.797 460.739C198.739 456.844 198.252 451.139 197.713 448.064L196.732 442.473L202.34 444.214C208.711 446.193 214.993 446.506 215.967 444.892C216.329 444.29 214.991 442.61 212.995 441.155C209.66 438.724 209.528 438.387 211.374 437.006C213.401 435.49 233.76 430.282 242.84 428.96C246.542 428.419 247.744 428.637 247.744 429.846C247.744 432.034 244.442 434.916 239.534 437.014C234.08 439.347 231.695 442.214 233.975 443.698C234.887 444.291 236.264 444.54 237.037 444.249C237.809 443.958 238.756 444.24 239.139 444.879C239.523 445.51 238.03 446.803 235.821 447.747C233.613 448.691 230.591 450.973 229.106 452.814C227.611 454.669 222.934 457.638 218.627 459.467C213.931 461.458 209.489 464.355 207.416 466.771C204.004 470.746 199.477 472.122 199.099 469.299ZM193.529 372.108C193.529 370.487 206.931 354.528 216.964 344.205C229.198 331.618 243.713 319.644 262.901 306.306C277.963 295.836 292.49 287.138 293.385 288.057C293.936 288.62 276.775 302.847 256.128 318.94C249.637 323.999 237.479 334.24 229.112 341.697C204.651 363.492 193.529 373.001 193.529 372.108ZM202.756 299.125C202.756 298.317 219.755 287.43 233.209 279.625C252.966 268.165 285.042 253.545 286.702 255.244C288.463 257.049 241.122 283.326 220.059 292.234L207.082 297.756C204.702 298.781 202.756 299.397 202.756 299.127V299.125H202.756ZM180.954 194.325C178.693 193.47 178.502 193.023 179.744 191.49C181.611 189.19 187.048 189.752 187.518 192.295C187.955 194.651 184.575 195.696 180.954 194.325Z" fill="black"/>
</g>
<defs>
<clipPath id="clip0_1179_1452">
<rect width="511" height="523" fill="white"/>
</clipPath>
</defs>
</svg>
